<svg width="95" height="22" viewBox="0 0 95 22" fill="none" xmlns="http://www.w3.org/2000/svg">
<path d="M78.5959 6.86854C78.8557 6.37809 79.5978 5.73673 80.2658 5.43492H80.2287C80.8966 5.13311 81.5275 4.90674 81.6388 4.90674C81.7501 4.86902 81.2677 6.98172 79.4123 14.3007H87.2051C91.4725 14.3007 94.9978 14.3762 94.9978 14.4894C94.9978 14.6025 94.8123 15.0175 94.6268 15.4325C94.4041 15.8475 93.7362 16.4511 93.1424 16.753C92.2518 17.2057 90.5077 17.3189 84.8672 17.3189C78.633 17.3189 77.6682 17.2057 77.0744 16.6398C76.7034 16.3002 76.4436 15.6589 76.4436 15.2439C76.4436 14.8289 76.8518 12.9803 77.3342 11.0939C77.7795 9.2076 78.3732 7.32126 78.5959 6.86854Z" fill="white"/>
<path d="M0 11.0939C0 10.1508 0.74217 9.24532 4.89832 5.17083C8.98025 1.17179 10.0193 0.341797 10.947 0.341797C11.7634 0.341797 12.5056 0.794519 13.8415 2.15268C15.2145 3.54858 15.5856 4.18993 15.5856 5.1331C15.5856 6.22718 15.4742 6.37809 14.5836 6.37809C13.9157 6.37809 13.0993 5.92536 10.947 3.73721L7.34748 7.13262C5.34362 8.98124 3.71085 10.7921 3.71085 11.0939C3.71085 11.3958 5.34362 13.2066 10.947 18.4507L12.0603 17.3189C12.8395 16.5266 13.5446 16.1871 14.361 16.1871C15.4371 16.1871 15.5856 16.3002 15.5856 17.2057C15.6227 17.9979 15.1403 18.7148 13.7301 20.0352C12.4313 21.2802 11.5778 21.8461 10.8728 21.8461C10.0564 21.8461 8.79471 20.8275 4.89832 17.017C0.74217 12.9425 0 12.0371 0 11.0939Z" fill="white"/>
<path d="M22.0795 7.88729L20.5952 6.37821L19.1108 4.86914H27.2747C33.9171 4.86914 35.587 4.98232 36.255 5.43504C36.824 5.81231 37.1085 6.37821 37.1085 7.13275C37.1085 7.73638 36.7374 9.7359 36.2921 11.5468C35.6612 14.1499 35.253 15.1308 33.1007 17.319H19.1108L22.0795 14.3008H32.6554L33.0636 12.7163C33.2492 11.8109 33.5831 10.4904 33.8058 9.77363C33.9913 9.05682 34.1398 8.34001 34.1398 8.1891C34.1398 8.00047 31.4309 7.88729 22.0795 7.88729Z" fill="white"/>
<path d="M38.9639 6.75548C39.1494 6.34049 39.8916 5.73686 40.5595 5.43504C41.4501 5.02005 43.4169 4.86914 48.6863 4.86914C55.1803 4.86914 55.6998 4.90687 56.4049 5.62368C56.8131 6.03867 57.147 6.71775 57.147 7.13275C57.147 7.84956 56.8873 7.88729 47.8699 7.88729C42.7861 7.88729 38.5928 7.7741 38.5928 7.69865C38.5928 7.58548 38.7783 7.17051 38.9639 6.75553L38.9639 6.75548Z" fill="white"/>
<path d="M58.6314 7.13275C58.854 6.71775 59.5591 6.03867 60.1899 5.62368C61.3032 4.94459 62.0825 4.86914 68.2796 4.86914C73.7716 4.86914 75.2931 4.98232 75.961 5.43504C76.4805 5.77458 76.8145 6.37821 76.8145 7.88729H67.5374C58.3716 7.88729 58.2603 7.84956 58.6314 7.13275Z" fill="white"/>
<path d="M38.1475 11.5091C37.9991 11.2827 37.8506 10.7922 37.8506 10.415C37.8506 9.81135 38.5186 9.77363 46.3856 9.77363C54.8092 9.77363 54.9205 9.77363 55.5143 10.6036C55.8853 11.2072 55.9967 11.8486 55.8111 12.7918C55.6998 13.5086 55.3287 14.5649 55.069 15.1308C54.7721 15.6967 54.067 16.4135 53.4362 16.7531C52.5456 17.1681 50.8015 17.319 45.1981 17.2813C38.9268 17.2813 37.9619 17.2058 37.3682 16.6399C36.9971 16.2626 36.7003 15.6213 36.7374 14.3008H44.7157C52.4343 14.3008 52.694 14.2631 52.694 13.5463C52.694 12.7918 52.4343 12.7918 46.5711 12.7918C43.0829 12.7918 40.0029 12.6031 39.4463 12.3768C38.8526 12.1504 38.2959 11.7731 38.1475 11.5091Z" fill="white"/>
<path d="M59.0025 12.3013C58.4087 11.9995 58.0376 11.4336 57.9634 10.7922L57.8521 9.77363H66.2015C73.1779 9.77363 74.6993 9.84908 75.1446 10.3395C75.4415 10.6413 75.7013 11.3959 75.7013 12.0372C75.7013 12.6409 75.4786 13.6972 75.2189 14.3763C74.922 15.0554 74.2169 15.9985 73.6232 16.489C72.5842 17.319 72.2873 17.319 65.4222 17.319C61.4145 17.319 57.9263 17.1304 57.5181 16.9417C57.0357 16.6776 56.7759 16.1872 56.7759 14.3008H64.5687C68.8733 14.3008 72.3615 14.1877 72.3615 14.1122C72.3615 13.999 72.4357 13.6595 72.5471 13.3577C72.6955 12.8672 71.842 12.7918 66.3499 12.7918C61.934 12.754 59.6333 12.6031 59.0025 12.3013Z" fill="white"/>
<path d="M16.0308 7.8873C16.9585 7.8873 17.0698 7.73639 17.0698 6.68004V5.43506L22.6361 11.0941L17.2553 16.6022L17.1811 15.4327C17.0698 14.4895 16.9214 14.3009 15.0288 14.3009L18.1831 11.0941L15.0288 7.8873H16.0308Z" fill="white"/>
<path d="M5.75171 11.3204L8.16376 8.8682C9.46256 7.51003 10.65 6.37823 10.7614 6.37823C10.8727 6.37823 12.0602 7.54776 15.9565 11.5091L10.9469 16.6022L5.75171 11.3204Z" fill="white"/>
<path d="M21.8941 7.88728C21.7828 7.88728 21.0406 7.2082 20.2242 6.37821C19.4078 5.54822 18.8883 4.86914 19.0367 4.86914C19.2223 4.86914 19.9645 5.54822 20.7066 6.37821C21.4859 7.2082 22.0054 7.88728 21.8941 7.88728Z" fill="white"/>
</svg>
